<svg width="44" height="29" viewBox="0 0 44 29" fill="none" xmlns="http://www.w3.org/2000/svg">
<g id="SVG">
<path id="Vector" d="M13.6985 23.3227L13.6171 23.4041C13.0925 23.9882 12.455 24.4601 11.7431 24.7912C11.0312 25.1223 10.2596 25.3058 9.47488 25.3307C6.39984 25.3307 4.16592 23.0152 4.16592 19.8314C4.16592 16.6476 6.39984 14.3411 9.47488 14.3411C10.9491 14.3411 12.3871 15.0104 13.6171 16.2677L13.6985 16.3491L15.6792 13.9522L15.6249 13.8889C14.9075 12.9729 13.9881 12.2351 12.9386 11.7331C11.889 11.231 10.7377 10.9783 9.57436 10.9945C7.13242 10.9945 4.90754 11.8176 3.30672 13.2919C1.56118 14.9019 0.638672 17.1541 0.638672 19.8314C0.638672 22.5087 1.56118 24.7699 3.30672 26.3708C5.03088 27.9017 7.26924 28.7254 9.57436 28.6773C10.7392 28.6949 11.8923 28.4428 12.9436 27.9407C13.9948 27.4386 14.9156 26.7001 15.634 25.7829L15.6792 25.7196L13.6985 23.3227ZM17.678 28.3517H21.1781V11.2749H17.678V28.3517ZM34.8801 24.6433C34.1116 25.1575 33.2171 25.4515 32.2934 25.4935C31.1629 25.4935 30.6474 24.8965 30.6474 23.5669V14.5039H34.2199V11.293H30.6474V5.97461L27.2287 7.81977V11.302H24.2712V14.513H27.2287V24.1548C27.2287 26.7778 28.7843 28.5687 31.0996 28.623C32.6823 28.6501 33.632 28.1798 34.2018 27.8361L34.2379 27.809L35.0791 24.5166L34.8801 24.6433ZM37.7742 28.3517H41.2744V11.2749H37.7742V28.3517Z" fill="#3471A8"/>
<path id="Vector_2" d="M43.3092 8.27123C41.7288 6.05448 39.6443 4.24496 37.2275 2.99173C34.8106 1.73849 32.1306 1.07743 29.4082 1.06299C26.6858 1.08092 24.0066 1.74544 21.5913 3.00182C19.176 4.2582 17.0939 6.07047 15.5163 8.28932L15.3535 8.52447H19.3782L19.4234 8.4702C20.7099 7.11314 22.2577 6.03051 23.9737 5.28753C25.6897 4.54456 27.5383 4.15662 29.4082 4.14707C33.0892 4.14707 36.6617 5.64841 39.4021 8.4702L39.4473 8.52447H43.472L43.3092 8.28932V8.27123Z" fill="#EE1C25"/>
</g>
</svg>
