<svg width="36" height="36" viewBox="0 0 36 36" fill="none" xmlns="http://www.w3.org/2000/svg">
<g id="SVG">
<path id="Vector" d="M32.0302 25.2621C31.6166 24.9643 32.4603 25.5598 32.0302 25.2621C32.1577 25.3467 32.2629 25.4608 32.3368 25.5948C32.4108 25.7288 32.4514 25.8786 32.4551 26.0316C32.4587 26.1846 32.4255 26.3362 32.3581 26.4736C32.2906 26.6109 32.1911 26.73 32.0678 26.8207C31.9445 26.9114 31.8012 26.971 31.65 26.9944C31.4988 27.0179 31.3441 27.0045 31.1992 26.9554C31.0542 26.9064 30.9233 26.823 30.8174 26.7125C30.7115 26.602 30.6339 26.4676 30.5911 26.3207C30.467 25.9403 30.6076 25.5019 30.9384 25.2786C31.2693 25.0553 31.6994 25.0305 32.0302 25.2621ZM19.9136 34.0952C20.1204 34.0952 20.352 34.0952 20.5588 34.0786C20.9888 34.0621 21.4272 34.0207 21.8407 33.9711C21.1294 34.0538 22.1881 33.938 21.8407 33.9711C22.2791 33.9215 22.6264 34.3185 22.5354 34.7568C22.5082 34.8499 22.4617 34.9363 22.399 35.0104C22.3364 35.0845 22.2589 35.1446 22.1715 35.1869C22.0475 35.2365 21.9234 35.2365 21.8076 35.2531C20.5202 35.3797 19.2232 35.3742 17.9369 35.2365C14.8576 34.9019 11.9316 33.7194 9.48431 31.8207C6.68853 29.6753 4.59759 26.7433 3.4798 23.4012C2.34627 19.9199 2.3347 16.1706 3.44672 12.6824C4.35951 9.84829 5.98523 7.29628 8.16792 5.27115C10.3506 3.24602 13.0171 1.81572 15.9115 1.11744C18.8059 0.419154 21.8312 0.476321 24.6972 1.28345C27.5632 2.09058 30.1737 3.6206 32.2783 5.72674C32.6294 6.02095 32.918 6.38263 33.1268 6.79035C33.3356 7.19808 33.4605 7.64356 33.4941 8.10043C33.5227 8.53513 33.4642 8.97117 33.3222 9.38301C33.1802 9.79486 32.9575 10.1742 32.667 10.4989C32.1588 11.0615 31.4751 11.4356 30.7273 11.5602C29.9795 11.6849 29.2114 11.5528 28.5482 11.1854C28.3266 11.0662 28.1233 10.9158 27.9445 10.7388C27.7294 10.5485 27.5392 10.3252 27.3324 10.135C26.0206 8.91272 24.4235 8.03846 22.687 7.59204C20.9504 7.14563 19.1297 7.14127 17.3911 7.57937C16.2497 7.87712 15.158 8.36509 14.149 9.00193C12.1858 10.3031 10.6949 12.203 9.89785 14.4192C9.08002 16.7073 9.07418 19.2071 9.88131 21.4989C10.6536 23.7171 12.1363 25.6184 14.0993 26.9079C16.1223 28.2533 18.5446 28.8662 20.964 28.6448C22.1467 28.5373 23.3046 28.2478 24.4046 27.7598C24.5204 27.7102 24.6279 27.6358 24.752 27.6192C24.8538 27.5997 24.9589 27.6054 25.058 27.6358C25.273 27.7102 25.4219 27.8673 25.4715 28.0741C25.5294 28.2643 25.4963 28.4876 25.3557 28.6531C25.276 28.733 25.1801 28.795 25.0745 28.835C24.9422 28.8846 24.8181 28.9591 24.6775 29.0087C22.434 29.9427 19.9611 30.1791 17.5813 29.6869C17.7384 29.8523 17.879 30.0508 18.0197 30.241L18.4166 30.8282L18.4828 30.9358H18.5324L18.7309 30.9523L19.0948 30.9854C20.7963 31.1133 22.5063 30.9029 24.126 30.3663C25.7457 29.8297 27.2431 28.9776 28.5317 27.8591L29.0527 27.3959C29.2099 27.2553 29.3257 27.0816 29.5242 26.9989C29.6858 26.9169 29.8677 26.8832 30.048 26.9019C30.2284 26.9206 30.3995 26.9909 30.5408 27.1044C30.6822 27.2179 30.7879 27.3697 30.8452 27.5417C30.9026 27.7137 30.9091 27.8985 30.864 28.0741C30.8061 28.2643 30.7151 28.4215 30.5745 28.5373L30.0783 29.0335C28.6741 30.3019 27.0441 31.295 25.273 31.9613C23.4024 32.6352 21.4213 32.9495 19.4339 32.8876C19.5166 33.111 19.5828 33.3425 19.6572 33.5658L19.74 33.8801C19.74 33.9132 19.7813 33.9959 19.7813 33.9959L19.9136 34.0786V34.0952ZM29.5986 30.9027C27.8121 32.226 29.8798 30.6959 29.5986 30.9027C29.6813 30.8282 29.8054 30.7786 29.946 30.7373C30.0637 30.7339 30.1802 30.762 30.2834 30.8187C30.3866 30.8754 30.4729 30.9587 30.5332 31.0598C30.6572 31.2666 30.6572 31.5395 30.5166 31.738C30.4339 31.8538 30.3099 31.9282 30.2024 32.011L29.8219 32.2756C29.5738 32.441 29.3257 32.623 29.061 32.7719C27.5042 33.7408 25.8003 34.4503 24.0159 34.8726C23.7512 34.9305 23.4948 34.8891 23.3212 34.6658C23.2418 34.5735 23.1922 34.4593 23.179 34.3383C23.1657 34.2172 23.1893 34.095 23.2467 33.9876C23.2914 33.8823 23.37 33.795 23.47 33.7395C23.5941 33.6734 23.7347 33.6568 23.8587 33.6237C24.1482 33.5576 24.4377 33.4666 24.7437 33.3756C26.4933 32.8354 28.1359 31.9959 29.5986 30.8944V30.9027ZM31.6828 29.0252C31.4512 29.2734 31.9309 28.7689 31.6828 29.0252C31.7494 28.9553 31.8312 28.9017 31.9219 28.8685C32.0125 28.8354 32.1096 28.8235 32.2056 28.8339C32.3016 28.8443 32.3939 28.8767 32.4753 28.9285C32.5568 28.9803 32.6252 29.0502 32.6753 29.1328C32.758 29.2734 32.7745 29.4636 32.7415 29.6207C32.6729 29.81 32.5525 29.9762 32.3941 30.1004C32.2287 30.2741 32.0633 30.4478 31.8896 30.6049C31.8142 30.6791 31.7228 30.7348 31.6224 30.7678C31.5219 30.8008 31.4153 30.8102 31.3106 30.7952C31.2242 30.7789 31.1421 30.7448 31.0694 30.6952C30.9968 30.6456 30.9352 30.5815 30.8886 30.5069C30.842 30.4323 30.8113 30.3488 30.7985 30.2618C30.7858 30.1748 30.7912 30.086 30.8144 30.0012C30.8806 29.811 31.0377 29.6869 31.1783 29.5463C31.3437 29.3809 31.5257 29.1989 31.6745 29.0252H31.6828ZM27.746 25.3861C27.1339 26.023 27.9858 25.138 27.746 25.3861C27.8483 25.2839 27.9814 25.218 28.1248 25.1985C28.2682 25.1791 28.4141 25.2072 28.54 25.2786C28.7963 25.4358 28.9039 25.7666 28.7963 26.0395C28.7302 26.1801 28.6309 26.2876 28.5234 26.3869C28.3994 26.511 28.3001 26.635 28.176 26.7343C27.9693 26.9245 27.7625 27.1147 27.5475 27.2884L26.8362 27.8095C26.5798 27.9997 26.2655 28.0245 26.0257 27.8095C25.925 27.7247 25.8539 27.61 25.8227 27.4822C25.7915 27.3543 25.8017 27.2198 25.852 27.0982C25.9053 26.9799 25.9914 26.8795 26.1001 26.8087L26.4723 26.5275C26.9272 26.1801 27.3407 25.7997 27.746 25.3861ZM19.9881 13.8899C20.1948 13.8899 20.4016 13.9147 20.6249 13.9147C21.6234 14.1371 22.504 14.7217 23.0966 15.5555C23.6892 16.3893 23.9517 17.4132 23.8334 18.4292C23.7152 19.4453 23.2245 20.3815 22.4562 21.0569C21.688 21.7323 20.6966 22.099 19.6738 22.0861C18.8467 22.0365 18.0197 21.7057 17.3828 21.1681C16.8918 20.771 16.4998 20.2653 16.2376 19.6909C15.9754 19.1165 15.8501 18.489 15.8718 17.8579C15.8934 17.2268 16.0614 16.6094 16.3623 16.0543C16.6633 15.4992 17.0891 15.0216 17.6061 14.6591C18.3009 14.1628 19.1362 13.8982 19.9881 13.8982V13.8899Z" fill="#FF6C36"/>
</g>
</svg>
