<svg width="32" height="31" viewBox="0 0 32 31" fill="none" xmlns="http://www.w3.org/2000/svg">
<g id="SVG">
<path id="Vector" fill-rule="evenodd" clip-rule="evenodd" d="M5.79256 0.539551H26.0241C27.3718 0.539551 28.6643 1.07493 29.6173 2.02792C30.5703 2.98091 31.1057 4.27344 31.1057 5.62117V25.8527C31.1057 28.6547 28.8261 30.9343 26.0241 30.9343H5.79256C4.44483 30.9343 3.1523 30.3989 2.19931 29.4459C1.24632 28.4929 0.710938 27.2004 0.710938 25.8527V5.62117C0.710938 2.80966 2.99054 0.539551 5.79256 0.539551ZM23.9819 25.4062C24.8653 25.4062 25.5871 24.6939 25.5871 23.801V7.67282C25.5871 6.77997 24.8653 6.05809 23.9724 6.05809H7.8442C7.6326 6.05809 7.42309 6.09992 7.22771 6.18119C7.03233 6.26245 6.85495 6.38154 6.70577 6.53161C6.55658 6.68167 6.43854 6.85975 6.35843 7.05561C6.27832 7.25146 6.23773 7.46122 6.23898 7.67282V23.801C6.23898 24.6939 6.96086 25.4157 7.8442 25.4157H23.9819V25.4062Z" fill="#A3A7B1"/>
<path id="Vector_2" d="M12.6775 19.859C12.4348 19.8565 12.2029 19.7583 12.0322 19.5858C11.8614 19.4133 11.7657 19.1803 11.7657 18.9376V12.4977C11.7644 12.3759 11.7873 12.2551 11.8331 12.1422C11.8788 12.0294 11.9465 11.9267 12.0321 11.8401C12.1178 11.7535 12.2198 11.6848 12.3322 11.6379C12.4446 11.591 12.5652 11.5669 12.687 11.5669H19.1459C19.2669 11.5681 19.3865 11.5932 19.4978 11.6406C19.6091 11.6881 19.7099 11.757 19.7946 11.8435C19.8793 11.9299 19.9461 12.0322 19.9913 12.1444C20.0364 12.2567 20.059 12.3767 20.0577 12.4977V18.9376C20.0577 19.182 19.9607 19.4163 19.7879 19.5891C19.6151 19.7619 19.3808 19.859 19.1364 19.859H12.6775Z" fill="#A3A7B1"/>
</g>
</svg>
