<svg width="45" height="44" viewBox="0 0 45 44" fill="none" xmlns="http://www.w3.org/2000/svg">
<g id="SVG">
<path id="Vector" d="M22.553 33.0626C29.4009 27.1827 39.035 21.4746 44.3269 19.4212C43.5127 18.8965 42.2373 18.1457 40.7989 17.3315C33.9782 19.584 26.0086 24.5684 18.8984 30.2222C20.1016 31.1358 21.3771 32.0857 22.553 33.0626Z" fill="#E31837"/>
<path id="Vector_2" d="M19.4147 17.0961C18.4015 16.6077 17.2979 16.1554 16.4476 15.7573C12.8885 17.558 9.48195 19.6455 6.26172 21.9991C7.16632 22.4876 8.16139 23.0756 9.20169 23.6636C12.4583 21.2483 15.7601 18.9596 19.4237 17.0961H19.4147Z" fill="#4974D5"/>
<path id="Vector_3" d="M25.5197 14.2921C22.7816 13.0283 19.9279 12.0316 16.9984 11.3159C16.1209 11.6506 14.8816 12.1301 14.0312 12.4919C15.1077 12.7904 19.1242 13.8669 22.5526 15.5947C23.4301 15.1695 24.6694 14.6539 25.5197 14.2921Z" fill="#E31837"/>
<path id="Vector_4" d="M10.9293 13.8667C7.47345 15.5131 4.1257 17.3773 0.90625 19.4481C1.69326 19.81 2.47122 20.0994 3.5477 20.6241C6.7629 18.3895 10.1508 16.4143 13.6793 14.717C12.5938 14.328 11.5806 14.0657 10.9293 13.8667Z" fill="#4974D5"/>
<path id="Vector_5" d="M28.3969 13.279C29.2744 12.9895 30.2966 12.7272 31.174 12.4649C28.3762 11.2753 25.4948 10.2927 22.5531 9.5249C22.1008 9.65155 20.7258 10.0134 19.776 10.3119C20.753 10.6014 23.9915 11.3522 28.3969 13.279ZM12.2949 25.5545C13.3443 26.1787 14.4569 27.02 15.5334 27.7437C22.6798 22.1894 29.7357 17.9196 37.4701 15.4953C36.3936 14.9525 35.4438 14.455 34.2406 13.867C29.6 15.043 21.6666 18.2091 12.304 25.5545H12.2949Z" fill="#E31837"/>
</g>
</svg>
