<svg width="36" height="32" viewBox="0 0 36 32" fill="none" xmlns="http://www.w3.org/2000/svg">
<g id="SVG">
<path id="Vector" d="M20.5004 26.9561V0.416016L18.2277 0.74747C12.3882 1.74183 6.55657 2.32583 0.693359 3.28073V28.3845C6.46187 29.3473 12.3093 30.3022 18.1173 31.3044H20.4846V26.9561H20.5083H20.5004ZM11.9147 21.4476C11.1862 19.9851 10.5458 18.4804 9.99716 16.9414C9.46844 18.4014 8.74244 19.7667 8.1506 21.203C7.31413 21.203 6.47765 21.1556 5.64118 21.124C6.6197 19.3168 7.56665 17.4938 8.57673 15.7103C7.71658 13.8557 6.77752 12.0485 5.8937 10.2176L8.4189 10.0834C8.97918 11.4803 9.60259 12.8692 10.0761 14.3055C10.6048 12.7824 11.3229 11.3225 11.97 9.87036L14.5583 9.72042C13.5482 11.6855 12.5224 13.6505 11.4965 15.6235L14.6609 21.637C13.7455 21.5581 12.8301 21.5107 11.9147 21.4476ZM21.471 3.85683V5.75875H25.5035V8.56822H21.471V10.1071H25.5035V12.9166H21.471V14.4634H25.5035V17.265H21.471V18.8039H25.5035V21.5897H21.471V23.2232H25.5035V25.938H21.471V27.8399H35.4149V3.85683H21.471ZM32.3373 25.9538H26.4662V23.239H32.3373V25.9617V25.9538ZM32.3373 21.6133H26.4662V18.8039H32.3373V21.6133ZM32.3373 17.2571H26.4662V14.4634H32.3373V17.265V17.2571ZM32.3373 12.9087H26.4662V10.1071H32.3373V12.9087ZM32.3373 8.56033H26.4662V5.75875H32.3373V8.56033Z" fill="#00AC47"/>
</g>
</svg>
