<svg width="35" height="36" viewBox="0 0 35 36" fill="none" xmlns="http://www.w3.org/2000/svg">
<g id="SVG">
<path id="Vector" d="M32.8231 32.9344V32.7752L32.8087 32.6739V31.9719L32.7869 31.8416V31.4798L32.7652 31.3133L32.7291 31.0962V30.9732L32.7146 30.843V30.7995L32.6929 30.6548V30.5607L32.6712 30.3436L32.6494 30.2423L32.6133 30.0252L32.5988 29.9166L32.5626 29.7068V29.6489L32.5481 29.5041V29.4535L32.5264 29.3594V29.1785L32.5119 29.0627L32.4685 28.7515L32.4323 28.4982L32.4179 28.368L32.3455 27.8976L32.2008 26.8844L32.085 26.1028L31.8244 24.3515L31.7666 23.9679L31.7376 23.7653L31.6869 23.4035L31.658 23.2008L31.4698 21.9054L31.4554 21.7607L31.3396 21.0081L31.3106 20.8633L31.2238 20.2482L31.1369 19.6403L30.9994 18.7212L30.9126 18.1133L30.8258 17.5127L30.8113 17.3679L30.7823 17.2232L30.7389 16.9265L30.6955 16.6298L30.6521 16.3331L30.6159 16.1087L30.5869 15.8844V15.6094L30.558 15.4502L30.5218 15.2331V15.1897L30.5001 15.0232L30.4784 14.9074L30.4639 14.8061L30.4277 14.589L30.3916 14.3791L30.3698 14.1693L30.3481 14.0824L30.3337 13.9739L30.2975 13.7568L30.2685 13.5541L30.2468 13.366V13.2864L30.0297 11.7883L29.9935 11.5568L29.9646 11.3686V11.3469L29.8343 10.4423L29.7909 10.1673L29.7692 9.97913L29.5883 8.72716L29.5666 8.64032L29.5159 8.25676V7.93834L29.5014 7.81532V7.64163L29.4797 7.55479V7.38111C29.4687 7.30581 29.4328 7.23637 29.3777 7.18389C29.3226 7.13142 29.2515 7.09893 29.1758 7.09163L26.3823 6.89624C26.3823 6.89624 24.5225 5.05808 24.3416 4.85545C24.3039 4.81669 24.2589 4.78583 24.2092 4.76471C24.1595 4.74358 24.1061 4.7326 24.0521 4.73242L22.1343 35.2502L32.8231 32.9489V32.9272V32.9344ZM8.79681 18.8515C8.79681 22.687 12.6323 22.7811 12.6323 25.1403C12.6334 25.3211 12.5979 25.5002 12.5279 25.6669C12.4579 25.8336 12.3549 25.9843 12.2251 26.1101C12.0953 26.2359 11.9413 26.3341 11.7725 26.3987C11.6037 26.4634 11.4235 26.4932 11.2429 26.4864C9.73037 26.4864 7.96458 24.9522 7.96458 24.9522L7.05273 27.9482C7.05273 27.9482 8.78958 30.0469 12.1764 30.0469C14.9916 30.0469 17.0902 27.9337 17.0902 24.6193C17.0902 20.4219 12.4152 19.7344 12.4152 17.9614C12.4152 17.6285 12.5238 16.3258 14.6008 16.3258C15.4916 16.3424 16.3681 16.5523 17.1698 16.941L18.4942 13.0258C18.4942 13.0258 17.6258 12.512 15.7876 12.4831C11.1126 12.4831 8.78958 15.6311 8.78958 18.8515H8.79681ZM14.608 16.3186C15.4993 16.3374 16.3759 16.5498 17.1771 16.941L18.5014 13.0258C18.5014 13.0258 17.633 12.512 15.7948 12.4831C11.1198 12.4831 8.79681 15.6311 8.79681 18.8515C8.79681 22.687 12.6323 22.7811 12.6323 25.1403C12.6334 25.3211 12.5979 25.5002 12.5279 25.6669C12.4579 25.8336 12.3549 25.9843 12.2251 26.1101C12.0953 26.2359 11.9413 26.3341 11.7725 26.3987C11.6037 26.4634 11.4235 26.4932 11.2429 26.4864C9.73037 26.4864 7.96458 24.9522 7.96458 24.9522L7.05273 27.9482C7.05273 27.9482 8.78958 30.0469 12.1764 30.0469C14.9916 30.0469 17.0902 27.9337 17.0902 24.6193C17.0902 20.4219 12.4152 19.7344 12.4152 17.9614C12.4152 17.6285 12.5238 16.3258 14.6008 16.3258L14.608 16.3186Z" fill="#93BE47"/>
<path id="Vector_2" d="M32.8308 32.9562L22.1348 35.2575L23.6256 4.73975C23.7341 4.73975 23.8427 4.78317 23.915 4.86277C24.096 5.0654 25.9558 6.90356 25.9558 6.90356L28.7492 7.09896C28.825 7.10626 28.8961 7.13874 28.9512 7.19122C29.0063 7.2437 29.0422 7.31313 29.0532 7.38843V7.55488L29.0749 7.64172V7.8154L29.0894 7.93119V8.11935L29.14 8.49567L29.1617 8.58251L29.3427 9.83448L29.3716 10.0299L29.415 10.3049L29.5453 11.2095V11.224L29.567 11.4194L29.6032 11.6509L29.8203 13.1417L29.8637 13.4022L29.9361 13.9233L29.9578 14.0246L30.0519 14.6542L30.0736 14.7628L30.0881 14.8713L30.117 15.0378V15.0884L30.1677 15.472V15.7759L30.2038 16.0003L30.24 16.2246L30.2835 16.5213L30.3269 16.818L30.3992 17.2595L30.4209 17.4042L30.5078 18.0049L30.5946 18.6128L30.7321 19.5391L30.819 20.147L30.9058 20.7549L30.9348 20.9069L31.0433 21.6667L31.0723 21.8115L31.2604 23.1069L31.2894 23.3022L31.34 23.6641L31.369 23.8667L31.4269 24.2503L31.6874 26.0088L31.8032 26.7904L31.9479 27.8036L32.0203 28.274L32.0348 28.4042L32.071 28.6575L32.1144 28.9687L32.1288 29.0772V29.2654L32.1506 29.3595V29.374L32.1723 29.5476V29.6128L32.2085 29.8299L32.2229 29.9457L32.2591 30.1628L32.2808 30.2713L32.3025 30.4812L32.3242 30.5753L32.3459 30.72V30.7634L32.3749 30.9588V31.0167L32.4111 31.2338L32.4328 31.4003V31.4726L32.4617 31.6319V31.7766L32.4762 31.9141L32.4979 32.0226V32.5871L32.5124 32.6957V32.8694L32.8308 32.9562Z" fill="#5F8D3E"/>
<path id="Vector_3" d="M12.423 17.9544C12.423 19.7419 17.098 20.4221 17.098 24.6267C17.098 27.934 14.9994 30.0544 12.177 30.0544C8.79739 30.0544 7.06055 27.9557 7.06055 27.9557L7.96515 24.9452C7.96515 24.9452 9.73094 26.4721 11.2434 26.4721C11.4241 26.479 11.6042 26.4492 11.7731 26.3845C11.9419 26.3198 12.0958 26.2216 12.2257 26.0959C12.3555 25.9701 12.4585 25.8193 12.5285 25.6526C12.5985 25.486 12.634 25.3068 12.6329 25.1261C12.6329 22.7813 8.79739 22.68 8.79739 18.8445C8.79739 15.6169 11.1204 12.4761 15.7954 12.4761C17.6263 12.505 18.5165 13.0116 18.5165 13.0116L17.1849 16.934C16.3837 16.5428 15.5072 16.3304 14.6158 16.3116C12.5316 16.3261 12.423 17.6287 12.423 17.9544Z" fill="white"/>
<path id="Vector_4" d="M23.1688 4.75448L22.1266 5.08738C22.0326 4.81961 21.9313 4.55909 21.8155 4.3058C21.1641 2.85843 20.1293 1.67159 18.4938 1.67159H18.3273C17.7918 0.962377 17.1115 0.636719 16.547 0.636719C12.0891 0.658429 9.96151 6.22356 9.28125 9.07488C7.54441 9.60317 6.32862 9.99396 6.16941 10.0301C5.20691 10.3341 5.17072 10.3558 5.04046 11.2676C4.93914 11.9841 2.40625 31.567 2.40625 31.567L21.6997 35.1782L22.1339 35.2505L23.6247 4.74725C23.7332 4.74725 23.8418 4.79067 23.9141 4.87027C23.7332 4.66764 23.3207 4.72553 23.1688 4.76172V4.75448ZM18.197 6.0933V6.27422L14.7523 7.34527C15.4326 4.82685 16.6701 3.57488 17.7556 3.10448C18.0813 4.06698 18.2332 5.08014 18.197 6.0933ZM16.4168 1.85251C16.6266 1.85251 16.822 1.92488 16.9957 2.04067C15.5484 2.70646 14.0286 4.39988 13.3773 7.78672L10.6562 8.61896C11.4234 6.05711 13.2253 1.85251 16.4168 1.85251ZM17.1839 16.9341C16.3827 16.5429 15.5061 16.3305 14.6148 16.3117C12.5306 16.3117 12.4293 17.6144 12.4293 17.9472C12.4293 19.7347 17.1043 20.4078 17.1043 24.6196C17.1043 27.9269 15.0056 30.0472 12.1832 30.0472C8.80362 30.0472 7.06678 27.9486 7.06678 27.9486L7.97138 24.938C7.97138 24.938 9.73717 26.465 11.2497 26.465C11.4303 26.4719 11.6105 26.442 11.7793 26.3774C11.9481 26.3127 12.1021 26.2145 12.2319 26.0887C12.3617 25.963 12.4648 25.8122 12.5347 25.6455C12.6047 25.4788 12.6403 25.2997 12.6391 25.119C12.6391 22.7742 8.80362 22.6729 8.80362 18.8301C8.80362 15.6097 11.1266 12.4617 15.8016 12.4617C17.6326 12.4907 18.5227 13.0045 18.5227 13.0045L17.1839 16.9341ZM19.3549 5.93409V5.57225C19.3766 4.65317 19.2319 3.74132 18.9497 2.8729C19.9484 3.02488 20.6214 4.14659 21.0266 5.43475L19.3622 5.94132L19.3549 5.93409Z" fill="#93BE47"/>
</g>
</svg>
