<svg width="44" height="45" viewBox="0 0 44 45" fill="none" xmlns="http://www.w3.org/2000/svg">
<g id="SVG">
<path id="Vector" d="M43.6201 18.2183V28.5138L42.1953 29.9046V19.8296L43.6201 18.2183Z" fill="#E79225"/>
<path id="Vector_2" d="M34.2823 18.2267L32.8066 19.8296L32.883 19.9314L42.1354 19.8974L42.2202 19.8296L43.6195 18.2183L34.2823 18.2267Z" fill="#FFF16D"/>
<path id="Vector_3" d="M32.8066 19.8296H42.2202V29.9131H32.8066V19.8296Z" fill="url(#paint0_linear_24_18224)"/>
<path id="Vector_4" d="M40.7884 23.4591C40.6019 22.9927 40.322 22.5687 39.9573 22.204C39.6096 21.8478 39.2195 21.5764 38.7785 21.3983C38.346 21.2202 37.8796 21.127 37.3707 21.127C36.8619 21.127 36.387 21.2202 35.9545 21.3983C35.5135 21.5764 35.1234 21.8478 34.7756 22.204C34.411 22.5687 34.1396 22.9927 33.953 23.4591C33.7664 23.9256 33.6816 24.4344 33.6816 24.9941C33.6816 25.5369 33.7749 26.0457 33.9615 26.5207C34.1469 26.9959 34.4268 27.4287 34.7841 27.7928C35.1234 28.1405 35.5135 28.4034 35.946 28.5815C36.3785 28.7596 36.8619 28.8528 37.3792 28.8528C37.8578 28.8565 38.3324 28.7646 38.7751 28.5825C39.2178 28.4005 39.6197 28.132 39.9573 27.7928C40.322 27.4196 40.6019 26.9956 40.7884 26.5291C40.978 26.0427 41.0729 25.5246 41.0683 25.0026C41.0683 24.4344 40.975 23.9256 40.7884 23.4591ZM38.8464 26.7836C38.4817 27.2161 37.9983 27.4366 37.3707 27.4366C36.7432 27.4366 36.2513 27.2161 35.8866 26.7836C35.5219 26.351 35.3439 25.7489 35.3439 24.9857C35.3439 24.2054 35.5304 23.6033 35.8866 23.1623C36.2513 22.7213 36.7347 22.5093 37.3707 22.5093C37.9983 22.5093 38.4817 22.7298 38.8464 23.1623C39.2026 23.6033 39.3891 24.2054 39.3891 24.9857C39.3891 25.7489 39.211 26.351 38.8464 26.7836Z" fill="white"/>
<path id="Vector_5" d="M31.8838 17.3789V17.4298L33.0881 26.6822L32.3842 28.6328L32.2909 28.5649L31.0527 19.6941L31.0782 19.5754L31.8499 17.4298L31.8838 17.3789Z" fill="#009ADA"/>
<path id="Vector_6" d="M22.6145 18.668L31.8839 17.3789L31.1037 19.6008L30.9934 19.7196L22.3262 20.9917L22.3686 19.4058L22.6145 18.668Z" fill="#91C9ED"/>
<path id="Vector_7" d="M31.1023 19.6006L32.3829 28.6325L23.2492 29.9131L22.0195 21.1865L22.5538 20.7709L31.1023 19.6006Z" fill="url(#paint1_linear_24_18224)"/>
<path id="Vector_8" d="M29.5512 21.3306C29.5088 21.0508 29.4155 20.8387 29.2628 20.6946C29.1365 20.5832 28.9733 20.5227 28.8049 20.525C28.7625 20.525 28.7116 20.525 28.6607 20.5334C28.4233 20.5674 28.2452 20.6776 28.1349 20.8557C28.0501 20.9829 28.0162 21.1441 28.0162 21.3306C28.0162 21.3985 28.0247 21.4748 28.0332 21.5511L28.3639 23.9003L25.7349 24.2904L25.4041 21.9412C25.3617 21.6699 25.2685 21.4578 25.1158 21.3137C24.9949 21.198 24.8336 21.1341 24.6663 21.1356C24.6239 21.1356 24.5815 21.1356 24.5391 21.1441C24.2932 21.178 24.1066 21.2882 23.9879 21.4663C23.9031 21.5935 23.8691 21.7547 23.8691 21.9412C23.8691 22.0091 23.8776 22.0854 23.8861 22.1702L24.7851 28.2848C24.8275 28.5646 24.9207 28.7767 25.0904 28.9208C25.2176 29.0311 25.3702 29.082 25.5568 29.082C25.6077 29.082 25.6586 29.082 25.7094 29.0735C25.8132 29.0619 25.9129 29.0269 26.0011 28.9711C26.0892 28.9153 26.1635 28.8401 26.2183 28.7512C26.2946 28.624 26.3285 28.4714 26.3285 28.2933C26.3285 28.2254 26.3201 28.1491 26.3116 28.0728L25.9469 25.6558L28.5759 25.2657L28.9406 27.6827C28.983 27.9625 29.0763 28.1745 29.2374 28.3102C29.3637 28.4216 29.5269 28.4821 29.6954 28.4798C29.7378 28.4798 29.7887 28.4798 29.8395 28.4714C30.077 28.4374 30.2551 28.3272 30.3653 28.1491C30.4417 28.0219 30.4841 27.8692 30.4841 27.6827C30.4841 27.6148 30.4756 27.5385 30.4671 27.4622L29.5512 21.3306Z" fill="white"/>
<path id="Vector_9" d="M13.9377 15.021L10.6387 22.8571L11.0881 26.3003L11.1136 26.2918L14.8196 17.9553L14.8027 17.7772L14.0055 15.1312L13.9377 15.021Z" fill="#66BF6B"/>
<path id="Vector_10" d="M13.9375 15.021L14.794 17.8959L14.811 17.9553L22.9694 21.6105L22.9949 21.5935L22.2994 18.8458L13.9375 15.021Z" fill="#98D0A0"/>
<path id="Vector_11" d="M14.7939 17.896L22.9948 21.5936L19.2887 29.9979L11.0879 26.3003L14.7939 17.896Z" fill="url(#paint2_linear_24_18224)"/>
<path id="Vector_12" d="M20.5113 22.2723C20.3332 21.7973 20.0873 21.3903 19.765 21.051C19.4427 20.7118 19.0526 20.4404 18.5947 20.2454C18.1367 20.0503 17.6788 19.957 17.2123 19.957H17.1869C16.712 19.957 16.2455 20.0673 15.7876 20.2708C15.3042 20.4828 14.8886 20.7712 14.5324 21.1528C14.1636 21.5485 13.8704 22.0084 13.6674 22.5097C13.4469 23.027 13.3282 23.5528 13.3027 24.0702V24.2483C13.3027 24.7062 13.3791 25.1557 13.5402 25.5967C13.7098 26.0631 13.9557 26.4617 14.278 26.8009C14.6003 27.1402 14.9989 27.4115 15.4738 27.6066C15.9233 27.8017 16.3812 27.8949 16.8477 27.8949H16.8561C17.3226 27.8949 17.789 27.7932 18.247 27.5981C18.7304 27.3861 19.1544 27.0893 19.5106 26.7076C19.8668 26.3345 20.1636 25.885 20.3841 25.3592C20.6046 24.8334 20.7233 24.3161 20.7488 23.7988V23.6461C20.7572 23.1797 20.6809 22.7217 20.5113 22.2723ZM18.8745 24.7147C18.5692 25.444 18.1537 25.9444 17.6533 26.2158C17.3819 26.3599 17.1021 26.4363 16.8222 26.4363C16.5763 26.4363 16.3134 26.3769 16.0505 26.2667C15.4738 26.0207 15.1176 25.6306 14.9649 25.0709C14.9141 24.8843 14.8886 24.6892 14.8886 24.4857C14.8886 24.0786 14.9904 23.6292 15.1939 23.1458C15.5077 22.3995 15.9233 21.8906 16.4236 21.6108C16.695 21.4581 16.9749 21.3903 17.2547 21.3903C17.5091 21.3903 17.7636 21.4496 18.035 21.5599C18.6032 21.8058 18.9593 22.1959 19.112 22.7557C19.1629 22.9337 19.1883 23.1288 19.1883 23.3323C19.1883 23.7564 19.0866 24.2143 18.8745 24.7147Z" fill="white"/>
<path id="Vector_13" d="M9.98571 16.3525L11.3257 25.3251L10.715 28.4799L10.6302 28.3697L9.32422 19.7024V19.5328L9.9009 16.5052L9.98571 16.3525Z" fill="#760D16"/>
<path id="Vector_14" d="M0.199219 20.9915L0.835269 17.8197L9.98592 16.3525L9.36683 19.5837V19.7957L0.309468 21.0763L0.199219 20.9915Z" fill="#EF463E"/>
<path id="Vector_15" d="M9.36683 19.5835L10.7153 28.4797L1.65789 29.896L0.199219 20.9913L9.36683 19.5835Z" fill="url(#paint3_linear_24_18224)"/>
<path id="Vector_16" d="M8.3918 27.0635C8.32396 26.9787 8.22219 26.9193 8.10346 26.8769C7.98473 26.8345 7.84056 26.8176 7.66246 26.8176C7.50133 26.8176 7.31476 26.8345 7.11122 26.8684L4.71967 27.2755C4.74511 27.0889 4.8384 26.8515 4.99953 26.5547C5.17763 26.2239 5.44901 25.8253 5.79672 25.3674C5.91545 25.2062 6.00873 25.0875 6.07658 25.0027C6.11898 24.9433 6.18683 24.867 6.27163 24.7568C6.82288 24.0359 7.15362 23.4507 7.28931 22.9928C7.36564 22.7299 7.40804 22.467 7.425 22.2041C7.43349 22.1277 7.43349 22.0599 7.43349 21.9921C7.43349 21.8055 7.41652 21.6189 7.3826 21.4323C7.35716 21.2627 7.31476 21.127 7.25539 21.0168C7.19603 20.9065 7.12818 20.8217 7.04337 20.7708C6.95009 20.7115 6.80592 20.686 6.62782 20.686C6.48365 20.686 6.30556 20.703 6.09354 20.7369L3.32884 21.2118C2.99809 21.2712 2.74367 21.3645 2.59102 21.5171C2.5305 21.5733 2.48257 21.6416 2.45041 21.7176C2.41825 21.7936 2.40258 21.8756 2.40445 21.9581C2.40445 22.0005 2.40445 22.0514 2.41293 22.1023C2.45533 22.3398 2.57406 22.5094 2.76911 22.5942C2.88784 22.6451 3.02353 22.6705 3.19315 22.6705C3.3034 22.6705 3.43061 22.662 3.5663 22.6366L5.87304 22.2295C5.87304 22.2719 5.88152 22.3143 5.88152 22.3482C5.88152 22.4924 5.85608 22.6366 5.8052 22.7723C5.73735 22.9673 5.56774 23.2387 5.28788 23.5864C5.21155 23.6797 5.09282 23.8324 4.93169 24.0274C4.30412 24.7822 3.86312 25.4267 3.59174 25.961C3.39668 26.3342 3.26947 26.6904 3.19315 27.055C3.15075 27.267 3.1253 27.4621 3.1253 27.6571C3.1253 27.7928 3.13378 27.9285 3.15923 28.0557C3.19315 28.2423 3.23555 28.395 3.29492 28.5137C3.35428 28.6324 3.43909 28.7257 3.53238 28.7766C3.62566 28.8275 3.75287 28.8444 3.93945 28.8444C4.16843 28.8444 4.48221 28.8105 4.8808 28.7427L7.39108 28.3102C7.83208 28.2338 8.14586 28.1236 8.32396 27.9794C8.46813 27.8607 8.54445 27.6996 8.54445 27.513C8.54445 27.4621 8.53597 27.4112 8.52749 27.3603C8.51053 27.2501 8.46813 27.1483 8.3918 27.0635Z" fill="white"/>
</g>
<defs>
<linearGradient id="paint0_linear_24_18224" x1="503.484" y1="34.249" x2="503.484" y2="997.73" gradientUnits="userSpaceOnUse">
<stop offset="0.0056" stop-color="#FFE513"/>
<stop offset="1" stop-color="#FDB924"/>
</linearGradient>
<linearGradient id="paint1_linear_24_18224" x1="68.7584" y1="158.716" x2="1009.81" y2="921.934" gradientUnits="userSpaceOnUse">
<stop offset="0.0056" stop-color="#008CD2"/>
<stop offset="1" stop-color="#00649D"/>
</linearGradient>
<linearGradient id="paint2_linear_24_18224" x1="606.431" y1="354.087" x2="606.431" y2="1198.2" gradientUnits="userSpaceOnUse">
<stop stop-color="#26A146"/>
<stop offset="1" stop-color="#008A52"/>
</linearGradient>
<linearGradient id="paint3_linear_24_18224" x1="460.065" y1="104.249" x2="599.863" y2="981.574" gradientUnits="userSpaceOnUse">
<stop stop-color="#D92231"/>
<stop offset="1" stop-color="#BA2234"/>
</linearGradient>
</defs>
</svg>
