<svg width="44" height="44" viewBox="0 0 44 44" fill="none" xmlns="http://www.w3.org/2000/svg">
<g id="SVG">
<path id="Vector" d="M38.1354 21.6045C38.2258 20.1842 38.6058 19.5239 39.3385 19.5239C40.0622 19.5239 40.424 20.2023 40.4783 21.6045H38.1263H38.1354ZM43.4635 22.4457C43.4635 20.8627 43.1107 19.6053 42.4413 18.7278C42.0764 18.277 41.6099 17.919 41.08 17.6832C40.5502 17.4473 39.972 17.3403 39.3928 17.3709C36.688 17.3709 35.0054 19.361 35.0054 22.5724C35.0054 24.3635 35.4577 25.7023 36.3443 26.5617C37.2308 27.4211 38.2711 27.7106 39.7456 27.7106C40.9405 27.7729 42.1271 27.4802 43.1559 26.8693L42.8122 24.6892C41.9709 25.1234 41.0392 25.3495 40.0984 25.3405C39.4742 25.3405 39.0581 25.2048 38.7505 24.9334C38.4429 24.662 38.2258 24.2007 38.1625 23.5313H43.4273L43.4635 22.4457ZM30.7538 24.5987C30.4824 25.0872 30.1025 25.3405 29.6321 25.3405C29.334 25.3425 29.0396 25.2743 28.7727 25.1415V20.4104C29.3155 19.8405 29.7949 19.7772 29.9758 19.7772C30.79 19.7772 31.188 20.6456 31.188 22.3553C31.188 23.3323 31.0433 24.0921 30.7538 24.5987ZM33.3862 18.4474C33.1112 18.092 32.7549 17.8078 32.3471 17.6189C31.9394 17.43 31.4922 17.3418 31.0433 17.3619C30.0482 17.3619 29.3245 17.7508 28.5556 18.565L28.3928 17.5699H25.6066V31.2114L28.7818 30.6867V27.4844C29.2522 27.6291 29.7316 27.7106 30.2201 27.7106C30.7493 27.7233 31.2754 27.6252 31.7646 27.4227C32.2537 27.2202 32.6952 26.9177 33.0605 26.5346C33.9652 25.5576 34.3541 24.1555 34.3541 22.2467C34.3541 20.5461 34.0285 19.2615 33.3862 18.4474ZM21.165 17.5518H24.3582V27.5206H21.165V17.5518ZM22.7571 16.5658C23.2033 16.5658 23.6313 16.3885 23.9468 16.073C24.2624 15.7575 24.4397 15.3295 24.4397 14.8832C24.4397 14.437 24.2624 14.009 23.9468 13.6935C23.6313 13.378 23.2033 13.2007 22.7571 13.2007C22.3108 13.2007 21.8829 13.378 21.5673 13.6935C21.2518 14.009 21.0745 14.437 21.0745 14.8832C21.0745 15.3295 21.2518 15.7575 21.5673 16.073C21.8829 16.3885 22.3108 16.5658 22.7571 16.5658ZM19.79 17.4161C18.8854 17.4161 18.1617 17.8775 17.8903 18.7278L17.6913 17.5428H14.9232V27.5115H18.1074V21.0527C18.5054 20.5642 19.0573 20.3832 19.8262 20.3832C20.0161 20.3832 20.2061 20.4013 20.3961 20.4285V17.5066C20.2013 17.4532 20.0009 17.4228 19.799 17.4161H19.79ZM13.6929 19.9129L14.0729 17.5609H12.0556V14.7023L9.33275 15.1456L8.94377 17.5518L7.97584 17.7056L7.614 19.9129H8.93472V24.5263C8.93472 25.7385 9.23324 26.5707 9.86647 27.0864C10.4997 27.593 11.142 27.7196 12.2094 27.7196C12.7702 27.7196 13.3311 27.6382 13.8739 27.4844V24.9877C13.5663 25.0691 13.2587 25.1143 12.9512 25.1324C12.3179 25.1324 12.0466 24.8158 12.0466 24.074V19.9129H13.6929ZM4.60167 21.3059C3.66992 20.9622 3.1543 20.6908 3.1543 20.2657C3.1543 19.8405 3.45282 19.7048 3.97749 19.7048C4.93637 19.7048 5.92239 20.0666 6.60084 20.4104L6.98982 18.0403C5.99767 17.5826 4.91628 17.3509 3.8237 17.3619C2.88657 17.318 1.96307 17.5992 1.2094 18.1579C0.576172 18.6826 0.196238 19.5148 0.196238 20.4737C0.196238 22.2106 1.25463 22.9614 2.98242 23.5856C4.10413 23.9926 4.46597 24.2731 4.46597 24.7073C4.46597 25.1415 4.10413 25.3676 3.46186 25.3676C2.81055 25.3676 1.31795 24.9696 0.449527 24.463L0.0605469 26.8602C1.16395 27.4234 2.38589 27.7149 3.62469 27.7106C4.76449 27.7106 5.70528 27.4392 6.34755 26.9326C6.98078 26.426 7.43308 25.5305 7.43308 24.454C7.44212 22.6809 6.3566 21.9392 4.60167 21.3059Z" fill="#5C65EA"/>
</g>
</svg>
