<svg width="35" height="36" viewBox="0 0 35 36" fill="none" xmlns="http://www.w3.org/2000/svg">
<g id="SVG">
<path id="Vector" d="M12.5219 0.841797C12.1987 0.844089 11.8895 0.974108 11.6617 1.20349C11.434 1.43288 11.3061 1.74302 11.3061 2.06627V10.6636H34.0067L23.6725 0.841797H12.5219ZM34.8404 13.2602C34.8404 13.0998 34.8086 12.941 34.747 12.7929C34.6853 12.6449 34.595 12.5105 34.4812 12.3974C34.3674 12.2844 34.2323 12.1951 34.0838 12.1345C33.9353 12.0739 33.7763 12.0433 33.6159 12.0444H25.0185V34.745L34.8404 24.4021V13.2602ZM22.4219 35.5786C22.7452 35.5763 23.0544 35.4463 23.2822 35.2169C23.5099 34.9876 23.6377 34.6774 23.6377 34.3542V25.7568H0.9372L11.2714 35.57H22.4219V35.5786ZM0.103516 23.1515C0.103516 23.4763 0.232522 23.7877 0.462156 24.0174C0.691789 24.247 1.00324 24.376 1.32799 24.376H9.92536V1.6668L0.103516 12.001V23.1602V23.1515Z" fill="#0659A5"/>
</g>
</svg>
