<svg width="40" height="40" viewBox="0 0 40 40" fill="none" xmlns="http://www.w3.org/2000/svg">
<g id="SVG">
<g id="Group">
<path id="Vector" d="M33.8635 31.7993C18.0453 39.3289 8.2278 33.029 1.94288 29.2033C1.55354 28.9628 0.893635 29.2604 1.46636 29.9188C3.56033 32.4577 10.421 38.5773 19.3771 38.5773C28.3407 38.5773 33.6726 33.6859 34.3386 32.8335C35 31.9872 34.534 31.5212 33.8635 31.7993ZM38.307 29.3461C37.8816 28.7929 35.723 28.6907 34.3656 28.8576C33.0052 29.0184 30.9623 29.8497 31.1397 30.3502C31.2314 30.5366 31.4178 30.4525 32.3513 30.3683C33.2893 30.2751 35.9139 29.9444 36.4611 30.6584C37.0113 31.3799 35.6238 34.8088 35.3713 35.3634C35.1262 35.9151 35.4645 36.0579 35.9244 35.6896C36.3769 35.3214 37.1977 34.3668 37.7493 33.0184C38.2965 31.661 38.6287 29.767 38.3055 29.3461H38.307Z" fill="#FF9900"/>
<path id="Vector_2" fill-rule="evenodd" clip-rule="evenodd" d="M23.2275 16.4381C23.2275 18.4133 23.2786 20.0608 22.2805 21.815C21.4733 23.2416 20.197 24.118 18.7705 24.118C16.8238 24.118 15.6889 22.6358 15.6889 20.4456C15.6889 16.1239 19.5627 15.3392 23.2275 15.3392V16.4381ZM28.3414 28.7975C28.1776 28.9369 27.9752 29.0231 27.7612 29.0446C27.5471 29.0661 27.3316 29.0218 27.1434 28.9177C25.4598 27.5197 25.1606 26.8718 24.2332 25.5385C21.4522 28.3766 19.483 29.2244 15.8753 29.2244C11.6107 29.2244 8.28711 26.5938 8.28711 21.3235C8.28711 17.2077 10.5194 14.4057 13.6927 13.0363C16.4465 11.8247 20.2902 11.6098 23.2275 11.2745V10.6191C23.2275 9.41357 23.3207 7.98852 22.6142 6.9468C21.9949 6.0118 20.8104 5.62698 19.7686 5.62698C17.837 5.62698 16.1113 6.6191 15.6904 8.67249C15.6047 9.12796 15.2695 9.57742 14.8125 9.59846L9.89254 9.07234C9.47915 8.97914 9.02218 8.64392 9.13642 8.00807C10.2698 2.04784 15.6543 0.25 20.4751 0.25C22.9434 0.25 26.1663 0.9054 28.1129 2.77539C30.5812 5.07831 30.3452 8.15087 30.3452 11.4955V19.3979C30.3452 21.773 31.3298 22.8132 32.2558 24.0969C32.585 24.5539 32.6556 25.1041 32.2408 25.4453C30.9321 26.5521 29.6367 27.6746 28.355 28.8125L28.3399 28.7975" fill="#A3A7B1"/>
<path id="Vector_3" d="M33.8635 31.7993C18.0453 39.3289 8.2278 33.029 1.94288 29.2033C1.55354 28.9628 0.893635 29.2604 1.46636 29.9188C3.56033 32.4577 10.421 38.5773 19.3771 38.5773C28.3407 38.5773 33.6726 33.6859 34.3386 32.8335C35 31.9872 34.534 31.5212 33.8635 31.7993ZM38.307 29.3461C37.8816 28.7929 35.723 28.6907 34.3656 28.8576C33.0052 29.0184 30.9623 29.8497 31.1397 30.3502C31.2314 30.5366 31.4178 30.4525 32.3513 30.3683C33.2893 30.2751 35.9139 29.9444 36.4611 30.6584C37.0113 31.3799 35.6238 34.8088 35.3713 35.3634C35.1262 35.9151 35.4645 36.0579 35.9244 35.6896C36.3769 35.3214 37.1977 34.3668 37.7493 33.0184C38.2965 31.661 38.6287 29.767 38.3055 29.3461H38.307Z" fill="#FF9900"/>
<path id="Vector_4" fill-rule="evenodd" clip-rule="evenodd" d="M23.2275 16.4381C23.2275 18.4133 23.2786 20.0608 22.2805 21.815C21.4733 23.2416 20.197 24.118 18.7705 24.118C16.8238 24.118 15.6889 22.6358 15.6889 20.4456C15.6889 16.1239 19.5627 15.3392 23.2275 15.3392V16.4381ZM28.3414 28.7975C28.1776 28.9369 27.9752 29.0231 27.7612 29.0446C27.5471 29.0661 27.3316 29.0218 27.1434 28.9177C25.4598 27.5197 25.1606 26.8718 24.2332 25.5385C21.4522 28.3766 19.483 29.2244 15.8753 29.2244C11.6107 29.2244 8.28711 26.5938 8.28711 21.3235C8.28711 17.2077 10.5194 14.4057 13.6927 13.0363C16.4465 11.8247 20.2902 11.6098 23.2275 11.2745V10.6191C23.2275 9.41357 23.3207 7.98852 22.6142 6.9468C21.9949 6.0118 20.8104 5.62698 19.7686 5.62698C17.837 5.62698 16.1113 6.6191 15.6904 8.67249C15.6047 9.12796 15.2695 9.57742 14.8125 9.59846L9.89254 9.07234C9.47915 8.97914 9.02218 8.64392 9.13642 8.00807C10.2698 2.04784 15.6543 0.25 20.4751 0.25C22.9434 0.25 26.1663 0.9054 28.1129 2.77539C30.5812 5.07831 30.3452 8.15087 30.3452 11.4955V19.3979C30.3452 21.773 31.3298 22.8132 32.2558 24.0969C32.585 24.5539 32.6556 25.1041 32.2408 25.4453C30.9321 26.5521 29.6367 27.6746 28.355 28.8125L28.3399 28.7975" fill="#A3A7B1"/>
</g>
</g>
</svg>
