<svg width="45" height="45" viewBox="0 0 45 45" fill="none" xmlns="http://www.w3.org/2000/svg">
<g id="SVG">
<path id="Vector" d="M22.5778 43.7558C28.2039 43.7483 33.5968 41.5067 37.5707 37.524C41.5446 33.5412 43.7741 28.1434 43.7691 22.5172C43.7716 19.7318 43.2255 16.9733 42.1618 14.399C41.0982 11.8247 39.538 9.48507 37.5702 7.51377C35.6024 5.54246 33.2655 3.97805 30.6931 2.90984C28.1208 1.84164 25.3631 1.29056 22.5778 1.28809C19.7908 1.28932 17.0314 1.8398 14.4573 2.90803C11.8832 3.97627 9.54488 5.54134 7.57595 7.51377C5.60703 9.4862 4.04613 11.8273 2.98247 14.4033C1.91881 16.9793 1.37325 19.7397 1.37697 22.5266C1.37447 28.1528 3.60641 33.5497 7.58206 37.5307C11.5577 41.5116 16.9516 43.7508 22.5778 43.7558Z" fill="#13B5EA"/>
<path id="Vector_2" d="M11.5249 22.4606L15.1402 18.8264C15.2323 18.7005 15.2761 18.5457 15.2637 18.3902C15.2513 18.2347 15.1835 18.0888 15.0726 17.9791C14.9617 17.8693 14.8152 17.803 14.6595 17.7922C14.5039 17.7814 14.3496 17.8269 14.2246 17.9202L10.6093 21.5355L6.97518 17.9108C6.85097 17.7974 6.6877 17.7365 6.51956 17.7407C6.35143 17.745 6.19146 17.8141 6.07314 17.9336C5.95482 18.0532 5.88733 18.2138 5.8848 18.382C5.88227 18.5502 5.94489 18.7128 6.05956 18.8359L9.68427 22.4606L6.069 26.0853C5.99708 26.1418 5.93789 26.2129 5.89528 26.2939C5.85266 26.3748 5.82758 26.4639 5.82167 26.5552C5.81576 26.6465 5.82915 26.738 5.86098 26.8238C5.8928 26.9096 5.94233 26.9877 6.00636 27.053C6.07038 27.1184 6.14745 27.1695 6.23256 27.2031C6.31766 27.2367 6.40889 27.252 6.50029 27.2479C6.5917 27.2439 6.68122 27.2207 6.76305 27.1797C6.84487 27.1388 6.91715 27.0811 6.97518 27.0103L10.5999 23.3856L14.2152 26.9915C14.3051 27.0823 14.4198 27.1446 14.5449 27.1707C14.6701 27.1968 14.8001 27.1855 14.9189 27.1382C15.0376 27.0909 15.1398 27.0097 15.2128 26.9047C15.2857 26.7997 15.3261 26.6756 15.329 26.5478C15.3286 26.3777 15.2607 26.2148 15.1402 26.0947L11.5249 22.4606ZM33.0278 22.4606C33.0278 23.1213 33.5564 23.6405 34.2077 23.6405C34.5207 23.6405 34.8208 23.5162 35.0421 23.2949C35.2633 23.0736 35.3876 22.7735 35.3876 22.4606C35.3876 22.1476 35.2633 21.8475 35.0421 21.6262C34.8208 21.405 34.5207 21.2807 34.2077 21.2807C33.5564 21.2807 33.0278 21.8093 33.0278 22.4606ZM30.8001 22.4606C30.8001 21.7843 31.0008 21.1233 31.3767 20.5612C31.7525 19.9991 32.2868 19.5611 32.9117 19.3027C33.5366 19.0444 34.2242 18.9773 34.8873 19.1099C35.5504 19.2425 36.1592 19.5689 36.6367 20.0477C37.1142 20.5265 37.4389 21.1363 37.5697 21.7997C37.7005 22.4632 37.6315 23.1506 37.3714 23.7748C37.1113 24.399 36.6719 24.932 36.1087 25.3063C35.5455 25.6807 34.884 25.8795 34.2077 25.8776C33.3031 25.8751 32.4364 25.514 31.7976 24.8735C31.1588 24.2329 30.8001 23.3652 30.8001 22.4606ZM29.4503 22.4606C29.4484 23.4042 29.7266 24.3271 30.2497 25.1125C30.7728 25.8978 31.5172 26.5103 32.3886 26.8722C33.26 27.2342 34.2193 27.3294 35.1448 27.1457C36.0704 26.9621 36.9206 26.5079 37.5878 25.8407C38.2551 25.1735 38.7093 24.3232 38.8929 23.3977C39.0765 22.4721 38.9813 21.5129 38.6194 20.6414C38.2574 19.77 37.645 19.0256 36.8596 18.5026C36.0743 17.9795 35.1513 17.7013 34.2077 17.7031C32.9451 17.7056 31.7351 18.209 30.8431 19.1027C29.9512 19.9963 29.4503 21.2074 29.4503 22.47M29.1199 17.7881H28.9217C28.3176 17.7881 27.7418 17.9769 27.2604 18.3545C27.2282 18.2079 27.1471 18.0766 27.0305 17.9823C26.9138 17.8879 26.7685 17.8361 26.6185 17.8353C26.5342 17.8365 26.451 17.8543 26.3736 17.8877C26.2961 17.9211 26.2261 17.9695 26.1674 18.0299C26.1086 18.0904 26.0624 18.1619 26.0313 18.2402C26.0002 18.3186 25.9848 18.4023 25.986 18.4866V26.5101C26.0063 26.668 26.0837 26.813 26.2036 26.9177C26.3235 27.0225 26.4776 27.0797 26.6368 27.0785C26.796 27.0774 26.9493 27.0179 27.0677 26.9114C27.186 26.805 27.2613 26.6588 27.2792 26.5006V21.5733C27.2792 19.9308 27.4303 19.2606 28.8367 19.0907C28.9689 19.0718 29.101 19.0718 29.1105 19.0718C29.488 19.0624 29.7712 18.7887 29.7712 18.4394C29.7725 18.3523 29.7563 18.2658 29.7235 18.185C29.6908 18.1043 29.6421 18.031 29.5805 17.9693C29.5189 17.9077 29.4456 17.8591 29.3648 17.8264C29.2841 17.7936 29.1976 17.7774 29.1105 17.7786M16.6694 21.696V21.6393C16.8579 20.894 17.291 20.2335 17.8993 19.7633C18.5075 19.2932 19.2559 19.0406 20.0247 19.0461C20.7935 19.0515 21.5382 19.3146 22.1398 19.7933C22.7414 20.272 23.1651 20.9386 23.343 21.6865H16.6694V21.696ZM24.6645 21.5733C24.5442 20.9381 24.2955 20.3342 23.9335 19.7986C23.5715 19.2629 23.104 18.8068 22.5596 18.4583C21.7624 17.9587 20.8356 17.7056 19.8952 17.7308C18.9548 17.756 18.0427 18.0583 17.2735 18.5999C16.4924 19.1602 15.897 19.9416 15.5639 20.8433C15.2308 21.745 15.1753 22.7258 15.4045 23.6594C15.6454 24.5857 16.158 25.4187 16.8763 26.0512C17.5947 26.6837 18.4858 27.0868 19.4351 27.2086C20.0109 27.2841 20.5679 27.2463 21.1437 27.0953C21.649 26.9744 22.1307 26.7702 22.569 26.4912C23.0315 26.1986 23.4185 25.8021 23.7961 25.3396L23.8056 25.3113C24.0699 24.9903 24.0227 24.5278 23.7395 24.3107C23.4941 24.1219 23.0976 24.0558 22.7767 24.4617L22.5501 24.7638C22.1549 25.2081 21.6508 25.5419 21.0874 25.7323C20.5241 25.9228 19.9208 25.9633 19.3371 25.85C18.7533 25.7367 18.209 25.4734 17.7579 25.086C17.3067 24.6986 16.9641 24.2004 16.7638 23.6405C16.702 23.4621 16.6546 23.279 16.6222 23.093L16.6128 22.9986H23.3808C24.3058 22.9703 24.7967 22.319 24.6645 21.5638V21.5733Z" fill="white"/>
</g>
</svg>
