<svg width="44" height="44" viewBox="0 0 44 44" fill="none" xmlns="http://www.w3.org/2000/svg">
<g id="SVG">
<path id="Vector" d="M21.7613 43.7106C27.5193 43.7106 33.0415 41.4233 37.113 37.3517C41.1845 33.2802 43.4718 27.7581 43.4718 22.0001C43.4718 16.2421 41.1845 10.7199 37.113 6.64842C33.0415 2.5769 27.5193 0.289551 21.7613 0.289551C16.0033 0.289551 10.4812 2.5769 6.40965 6.64842C2.33813 10.7199 0.0507813 16.2421 0.0507812 22.0001C0.0507813 27.7581 2.33813 33.2802 6.40965 37.3517C10.4812 41.4233 16.0033 43.7106 21.7613 43.7106Z" fill="#2CA01C"/>
<path id="Vector_2" d="M6.08152 22.0001C6.08152 24.2394 6.97108 26.387 8.55452 27.9705C10.138 29.5539 12.2856 30.4435 14.5249 30.4435H15.7291V27.3056H14.5249C13.1173 27.3056 11.7674 26.7465 10.7721 25.7512C9.77682 24.7559 9.21767 23.406 9.21767 21.9984C9.21767 20.5909 9.77682 19.241 10.7721 18.2457C11.7674 17.2504 13.1173 16.6912 14.5249 16.6912H17.4185V33.0962C17.4185 33.9279 17.7486 34.7255 18.3363 35.3138C18.9241 35.9022 19.7213 36.2332 20.5529 36.2341V13.5534H14.5249C13.4155 13.5529 12.3169 13.7711 11.2919 14.1954C10.2669 14.6198 9.33557 15.2419 8.55113 16.0264C7.76669 16.8108 7.14452 17.7422 6.72019 18.7672C6.29586 19.7922 6.07768 20.8908 6.07813 22.0001H6.08152ZM28.9963 13.5568H27.792V16.6946H28.9963C30.4034 16.6946 31.7529 17.2536 32.7479 18.2486C33.7428 19.2435 34.3018 20.593 34.3018 22.0001C34.3018 23.4072 33.7428 24.7567 32.7479 25.7517C31.7529 26.7467 30.4034 27.3056 28.9963 27.3056H26.1027V10.9074C26.1027 10.0761 25.7725 9.27884 25.1846 8.69101C24.5968 8.10319 23.7995 7.77295 22.9682 7.77295V30.4469H28.9963C31.2356 30.4469 33.3832 29.5573 34.9667 27.9739C36.5501 26.3904 37.4397 24.2428 37.4397 22.0035C37.4397 19.7642 36.5501 17.6166 34.9667 16.0332C33.3832 14.4497 31.2356 13.5602 28.9963 13.5602V13.5568Z" fill="white"/>
</g>
</svg>
