<svg width="53" height="54" viewBox="0 0 53 54" fill="none" xmlns="http://www.w3.org/2000/svg">
<g id="SVG">
<path id="Vector" d="M11.0681 15.9707C8.53228 15.9707 6.5957 17.8986 6.5957 20.3649C6.5957 23.0744 8.5236 24.1165 10.6686 24.7591C12.692 25.4018 13.656 26.1139 13.656 27.512C13.656 28.9362 12.5965 29.9349 11.207 29.9349C9.81755 29.9349 8.61912 28.9362 8.61912 27.3991C8.61912 26.5481 9.0186 26.331 9.0186 25.8533C9.0186 25.3062 8.64518 24.9068 8.0286 24.9068C7.32518 24.9068 6.5957 25.9749 6.5957 27.4946C6.5957 29.9436 8.6886 31.7499 11.207 31.7499C13.7428 31.7499 15.6794 29.822 15.6794 27.3557C15.6794 24.6723 13.7515 23.6041 11.5891 22.9615C9.59176 22.3449 8.62781 21.6068 8.62781 20.2086C8.62781 18.8104 9.66123 17.8118 11.0507 17.8118C12.4836 17.8118 13.6386 18.8278 13.6647 20.2347C13.6907 20.8773 14.1336 21.2507 14.6546 21.2507C15.1931 21.2507 15.6881 20.8686 15.662 20.1825C15.6012 17.7336 13.5604 15.9707 11.0681 15.9707ZM21.272 31.7239C22.401 31.7239 23.2694 31.3418 23.2694 30.5862C23.2694 30.0131 22.8004 29.6397 22.3489 29.6397C22.0189 29.6397 21.7844 29.7786 21.246 29.7786C19.787 29.7786 18.632 28.5194 18.632 27.0431C18.632 25.4539 19.8044 24.1947 21.2894 24.1947C22.9568 24.1947 24.0162 25.4799 24.0162 27.3297V30.7252C24.0162 31.3244 24.4852 31.7239 25.0497 31.7239C25.5881 31.7239 26.057 31.3157 26.057 30.7252V27.2602C26.057 24.4118 24.1031 22.3189 21.3241 22.3189C18.7362 22.3189 16.5912 24.3423 16.5912 27.0431C16.6173 29.657 18.7362 31.7239 21.272 31.7239ZM31.6236 38.0894C34.1594 38.0894 36.096 36.1615 36.096 33.6952C36.096 30.9857 34.1681 29.9436 32.0057 29.301C30.0083 28.6583 29.0444 27.9462 29.0444 26.5481C29.0444 25.1499 30.1039 24.1252 31.4673 24.1252C32.8568 24.1252 34.0812 25.1239 34.0812 26.661C34.0812 27.5207 33.6818 27.7291 33.6818 28.2068C33.6818 28.7539 34.0552 29.1533 34.6457 29.1533C35.3752 29.1533 36.1046 28.0852 36.1046 26.5654C36.1046 24.1165 33.9857 22.3102 31.4673 22.3102C28.9315 22.3102 27.021 24.2381 27.021 26.7044C27.021 29.3878 28.9228 30.456 31.0939 31.0986C33.1173 31.7152 34.0812 32.4533 34.0812 33.8515C34.0812 35.2757 33.0218 36.2483 31.6583 36.2483C30.1994 36.2483 29.0704 35.2497 29.0444 33.8254C29.0183 33.1828 28.5494 32.8268 28.0544 32.8268C27.516 32.8268 27.021 33.1828 27.047 33.8689C27.0557 36.3612 29.1052 38.0894 31.6236 38.0894ZM41.8362 31.7239C43.1475 31.7239 44.1897 31.3418 44.9191 30.8902C45.6225 30.4386 45.9004 30.0565 45.9004 29.631C45.9004 29.1794 45.5704 28.7799 44.9625 28.7799C44.2331 28.7799 43.6512 29.8741 41.8536 29.8741C40.2818 29.8741 39.0312 28.6149 39.0312 27.0257C39.0312 25.4539 40.2297 24.1773 41.732 24.1773C43.356 24.1773 44.2244 25.2454 44.2244 25.9315C44.2244 26.1225 44.0854 26.2181 43.8944 26.2181H41.9231C41.3846 26.2181 40.9852 26.5741 40.9852 27.0518C40.9852 27.5728 41.3846 27.9549 41.9231 27.9549H44.6239C45.6573 27.9549 46.2912 27.4078 46.2912 26.4786C46.2912 24.1512 44.3199 22.3275 41.6973 22.3275C39.1094 22.3275 37.0165 24.4204 37.0165 27.0257C37.0165 29.631 39.1962 31.7239 41.8362 31.7239Z" fill="#52AF38"/>
</g>
</svg>
