<svg width="35" height="36" viewBox="0 0 35 36" fill="none" xmlns="http://www.w3.org/2000/svg">
<g id="SVG">
<path id="Vector" d="M7.43146 22.3598C7.43146 23.0812 7.21754 23.7863 6.81676 24.3861C6.41599 24.9859 5.84635 25.4534 5.17988 25.7295C4.51341 26.0056 3.78004 26.0778 3.07252 25.9371C2.365 25.7963 1.7151 25.4489 1.20501 24.9388C0.694916 24.4288 0.347538 23.7789 0.206804 23.0713C0.066069 22.3638 0.138299 21.6305 0.41436 20.964C0.690421 20.2975 1.15791 19.7279 1.75772 19.3271C2.35753 18.9263 3.06271 18.7124 3.78409 18.7124H7.43146V22.3598ZM9.25514 22.3598C9.25514 21.3924 9.63942 20.4647 10.3234 19.7807C11.0074 19.0967 11.9352 18.7124 12.9025 18.7124C13.8699 18.7124 14.7976 19.0967 15.4816 19.7807C16.1656 20.4647 16.5499 21.3924 16.5499 22.3598V31.4782C16.5499 32.4455 16.1656 33.3733 15.4816 34.0573C14.7976 34.7413 13.8699 35.1256 12.9025 35.1256C11.9352 35.1256 11.0074 34.7413 10.3234 34.0573C9.63942 33.3733 9.25514 32.4455 9.25514 31.4782V22.3598Z" fill="#E01E5A"/>
<path id="Vector_2" d="M12.9019 7.71612C12.1805 7.71612 11.4753 7.50221 10.8755 7.10143C10.2757 6.70065 9.8082 6.13101 9.53214 5.46454C9.25608 4.79807 9.18385 4.06471 9.32459 3.35719C9.46532 2.64967 9.8127 1.99977 10.3228 1.48968C10.8329 0.979584 11.4828 0.632206 12.1903 0.491472C12.8978 0.350737 13.6312 0.422967 14.2977 0.699028C14.9641 0.975088 15.5338 1.44258 15.9345 2.04239C16.3353 2.64219 16.5492 3.34737 16.5492 4.06876V7.71612H12.9019ZM12.9019 9.56152C13.8707 9.56152 14.7998 9.94637 15.4848 10.6314C16.1698 11.3164 16.5547 12.2455 16.5547 13.2143C16.5547 14.1831 16.1698 15.1122 15.4848 15.7972C14.7998 16.4823 13.8707 16.8671 12.9019 16.8671H3.75088C3.2719 16.8671 2.79762 16.7728 2.3551 16.5895C1.91258 16.4062 1.51049 16.1375 1.17181 15.7988C0.833116 15.4601 0.564452 15.058 0.381155 14.6155C0.197858 14.173 0.103516 13.6987 0.103516 13.2197C0.103516 12.7408 0.197858 12.2665 0.381155 11.824C0.564452 11.3814 0.833116 10.9794 1.17181 10.6407C1.51049 10.302 1.91258 10.0333 2.3551 9.85001C2.79762 9.66672 3.2719 9.57238 3.75088 9.57238H12.9019V9.56152Z" fill="#36C5F0"/>
<path id="Vector_3" d="M27.513 13.2197C27.513 12.4984 27.7269 11.7932 28.1276 11.1934C28.5284 10.5936 29.0981 10.1261 29.7645 9.85001C30.431 9.57395 31.1644 9.50172 31.8719 9.64246C32.5794 9.78319 33.2293 10.1306 33.7394 10.6407C34.2495 11.1508 34.5969 11.8007 34.7376 12.5082C34.8783 13.2157 34.8061 13.9491 34.5301 14.6155C34.254 15.282 33.7865 15.8516 33.1867 16.2524C32.5869 16.6532 31.8817 16.8671 31.1603 16.8671H27.513V13.2197ZM25.6893 13.2197C25.6893 14.1871 25.305 15.1148 24.621 15.7988C23.937 16.4828 23.0092 16.8671 22.0419 16.8671C21.0746 16.8671 20.1468 16.4828 19.4628 15.7988C18.7788 15.1148 18.3945 14.1871 18.3945 13.2197V4.06875C18.3945 3.10141 18.7788 2.17369 19.4628 1.48968C20.1468 0.805662 21.0746 0.421387 22.0419 0.421387C23.0092 0.421387 23.937 0.805662 24.621 1.48968C25.305 2.17369 25.6893 3.10141 25.6893 4.06875V13.2197Z" fill="#2EB67D"/>
<path id="Vector_4" d="M22.0419 27.8308C22.7633 27.8308 23.4685 28.0447 24.0683 28.4455C24.6681 28.8463 25.1356 29.4159 25.4116 30.0824C25.6877 30.7489 25.7599 31.4822 25.6192 32.1898C25.4784 32.8973 25.1311 33.5472 24.621 34.0573C24.1109 34.5674 23.461 34.9147 22.7535 35.0555C22.0459 35.1962 21.3126 35.124 20.6461 34.8479C19.9796 34.5719 19.41 34.1044 19.0092 33.5046C18.6084 32.9048 18.3945 32.1996 18.3945 31.4782V27.8308H22.0419ZM22.0419 26.0071C21.0746 26.0071 20.1468 25.6229 19.4628 24.9388C18.7788 24.2548 18.3945 23.3271 18.3945 22.3598C18.3945 21.3924 18.7788 20.4647 19.4628 19.7807C20.1468 19.0967 21.0746 18.7124 22.0419 18.7124H31.1929C32.1602 18.7124 33.0879 19.0967 33.772 19.7807C34.456 20.4647 34.8403 21.3924 34.8403 22.3598C34.8403 23.3271 34.456 24.2548 33.772 24.9388C33.0879 25.6229 32.1602 26.0071 31.1929 26.0071H22.0419Z" fill="#ECB22E"/>
</g>
</svg>
